<svg width="254" height="267" viewBox="0 0 254 267" fill="none" xmlns="http://www.w3.org/2000/svg">
<g filter="url(#filter0_d_320_492)">
<path fill-rule="evenodd" clip-rule="evenodd" d="M96.8519 71.4793C111.797 71.4324 125.773 68.7564 140.71 70.2835C157.783 72.0292 176.071 71.1267 190.192 81.0227C205.15 91.5051 212.959 108.603 219.118 125.233C225.845 143.396 231.871 162.639 227.176 180.879C222.282 199.895 211.057 218.828 192.846 227.312C175.194 235.535 153.791 221.894 134.083 224.245C111.924 226.888 90.8433 253.645 71.4996 241.788C51.6649 229.629 66.5165 198.36 57.8037 177.486C50.8374 160.797 31.3612 150.979 26.3912 133.722C20.3586 112.775 10.9499 84.8468 27.0323 70.6402C44.1197 55.5459 73.1133 71.5538 96.8519 71.4793Z" fill="#EF5858"/>
</g>
<path fill-rule="evenodd" clip-rule="evenodd" d="M94.256 61.9455C108.851 60.4465 122.357 56.3588 137.029 56.4667C153.799 56.59 171.613 53.8934 185.939 62.6199C201.115 71.8636 209.665 88.5517 216.578 104.923C224.128 122.802 231.053 141.852 227.452 160.921C223.698 180.799 213.756 201.208 196.426 211.633C179.628 221.737 157.987 209.897 138.865 214.209C117.364 219.058 98.2174 248.407 78.6839 238.186C58.6546 227.706 71.4733 194.357 61.8368 173.905C54.1319 157.552 34.579 149.424 28.7934 132.298C21.7708 111.51 11.0739 83.9266 26.0155 67.8688C41.8908 50.8077 71.0737 64.3265 94.256 61.9455Z" fill="#FFDE69"/>
<path d="M112.294 114.032C112.294 114.032 111.492 115.418 112.294 116.57H95.3931V114.032H112.294Z" fill="#D0F3F1"/>
<path d="M112.572 116.657C112.572 116.715 112.542 116.774 112.499 116.817C112.455 116.861 112.397 116.89 112.338 116.89H87.1977C86.7456 116.89 86.3665 116.526 86.3665 116.059V114.63C86.3665 114.178 86.731 113.799 87.1977 113.799H112.338C112.469 113.799 112.572 113.901 112.572 114.032C112.572 114.163 112.469 114.265 112.338 114.265H96.7202C96.4139 114.265 96.166 114.513 96.166 114.82V115.884C96.166 116.19 96.4139 116.438 96.7202 116.438H112.338C112.469 116.424 112.572 116.526 112.572 116.657Z" fill="#EE504F"/>
<path d="M112.572 116.613C112.586 116.686 112.557 116.774 112.513 116.817C112.47 116.861 112.411 116.89 112.353 116.89H96.589C96.064 116.89 95.6411 116.467 95.6411 115.942V114.747C95.6411 114.222 96.064 113.799 96.589 113.799H112.353C112.47 113.799 112.572 113.886 112.586 114.003C112.601 114.134 112.499 114.251 112.353 114.251H96.7348C96.4286 114.251 96.1807 114.499 96.1807 114.805V115.87C96.1807 116.176 96.4286 116.424 96.7348 116.424H112.353C112.44 116.424 112.542 116.497 112.572 116.613Z" fill="#D34848"/>
<path d="M112.192 121.848C112.192 121.848 111.361 123.963 112.192 125.815H99.4908V121.848H112.192Z" fill="#D0F3F1"/>
<path d="M112.644 125.873C112.644 125.961 112.615 126.048 112.557 126.107C112.499 126.165 112.426 126.194 112.338 126.194H85.5207C84.8207 126.194 84.2374 125.625 84.2374 124.911V122.694C84.2374 121.994 84.8062 121.411 85.5207 121.411H112.338C112.499 121.411 112.644 121.542 112.644 121.703C112.644 121.878 112.513 122.009 112.353 122.009H100.964C100.395 122.009 99.9284 122.476 99.9284 123.044V124.517C99.9284 125.086 100.395 125.552 100.964 125.552H112.338C112.499 125.596 112.644 125.713 112.644 125.873Z" fill="#197A83"/>
<path d="M112.644 125.873C112.644 125.961 112.615 126.048 112.557 126.107C112.499 126.165 112.426 126.194 112.338 126.194H100.687C99.8992 126.194 99.2576 125.552 99.2576 124.765V122.855C99.2576 122.067 99.8992 121.426 100.687 121.426H112.338C112.499 121.426 112.644 121.557 112.644 121.717C112.644 121.892 112.513 122.023 112.353 122.023H100.964C100.395 122.023 99.9284 122.49 99.9284 123.059V124.532C99.9284 125.1 100.395 125.567 100.964 125.567H112.338C112.499 125.596 112.644 125.713 112.644 125.873Z" fill="#156468"/>
<path d="M111.186 122.796H104.099V122.84H111.186V122.796Z" fill="#373133"/>
<path d="M108.167 122.796L108.692 125.159L109.232 124.298V122.971L108.167 122.796Z" fill="#38B0A9"/>
<path d="M110.792 123.409V125.159L109.757 124.386L108.678 125.159V123.409C108.678 122.986 108.167 122.796 108.167 122.796H110.442C110.792 122.898 110.792 123.35 110.792 123.409Z" fill="#6D68E0"/>
<path d="M110.793 123.409H108.693V123.394C108.693 122.971 108.182 122.782 108.182 122.782H110.457C110.793 122.898 110.793 123.35 110.793 123.409Z" fill="#5A5ABA"/>
<path d="M85.4769 117.109C85.4769 117.109 86.3227 119.413 85.4769 121.148H102.145V117.109H85.4769Z" fill="#D0F3F1"/>
<path d="M113.621 118.392V119.909C113.621 120.755 112.936 121.44 112.09 121.44H85.5061C85.3749 121.44 85.2728 121.338 85.2728 121.207V121.192C85.2728 121.061 85.3749 120.959 85.5061 120.959H100.614C101.212 120.959 101.707 120.463 101.707 119.865V118.451C101.707 117.853 101.212 117.357 100.614 117.357H85.5061C85.4332 117.357 85.3748 117.328 85.3311 117.284C85.2873 117.24 85.2582 117.167 85.2582 117.094C85.2728 116.963 85.3749 116.876 85.5061 116.876H112.09C112.936 116.861 113.621 117.547 113.621 118.392Z" fill="#F1884F"/>
<path d="M102.393 118.247V120.069C102.393 120.828 101.78 121.44 101.022 121.44H85.5206C85.3894 121.44 85.2873 121.338 85.2873 121.207V121.192C85.2873 121.061 85.3894 120.959 85.5206 120.959H100.628C101.226 120.959 101.722 120.463 101.722 119.865V118.451C101.722 117.853 101.226 117.357 100.628 117.357H85.5206C85.4477 117.357 85.3894 117.328 85.3456 117.284C85.3019 117.24 85.2727 117.167 85.2727 117.094C85.2873 116.963 85.3894 116.876 85.5206 116.876H101.022C101.78 116.861 102.393 117.488 102.393 118.247Z" fill="#D37146"/>
<path d="M94.9848 119.807H87.8976V119.851H94.9848V119.807Z" fill="#373133"/>
<path d="M93.3223 119.792H92.4182V120.944H93.3223V119.792Z" fill="#38B0A9"/>
<path d="M92.7974 120.799V124.459L91.8058 123.569L90.8579 124.459V120.944L92.7974 120.799Z" fill="#A82329"/>
<path d="M93.3224 119.792H91.3975C91.3975 119.792 91.3975 120.653 90.8579 120.944H92.7828C92.7828 120.944 93.3224 120.799 93.3224 119.792Z" fill="#EE504F"/>
<path d="M108.576 109.395C108.576 109.395 107.92 111.247 108.576 113.288H91.8641V109.468L108.576 109.395Z" fill="#D0F3F1"/>
<path d="M92.6371 108.855H108.605C108.795 108.855 108.941 109.001 108.941 109.191C108.941 109.38 108.795 109.526 108.605 109.526H92.7975C92.3454 109.526 91.9662 109.891 91.9662 110.357V112.297C91.9662 112.749 92.3308 113.128 92.7975 113.128H108.605C108.795 113.128 108.941 113.274 108.941 113.463V113.493C108.941 113.682 108.795 113.828 108.605 113.828H92.6371C91.9808 113.828 91.4413 113.288 91.4413 112.632V110.08C91.4413 109.395 91.9808 108.855 92.6371 108.855Z" fill="#6D68E0"/>
<path d="M106.447 111.976H99.3596V112.02H106.447V111.976Z" fill="#373133"/>
<path d="M104.143 111.976H103.399V113.113H104.143V111.976Z" fill="#38B0A9"/>
<path d="M103.909 112.982V115.957L104.799 115.068L105.703 115.957V113.128L103.909 112.982Z" fill="#156468"/>
<path d="M103.399 111.976H105.164C105.164 111.976 105.164 112.836 105.703 113.113H103.939C103.939 113.128 103.399 112.982 103.399 111.976Z" fill="#197A83"/>
<path d="M32.3815 111.436C32.3815 111.436 31.0399 130.715 54.3284 127.492L55.67 130.7C55.67 130.7 62.2906 118.042 51.3827 115.972C49.2099 115.563 42.5456 115.709 42.5456 115.709L32.3815 111.436Z" fill="#5CC2AD"/>
<path d="M35.8668 147.31C35.8668 147.31 33.1836 148.914 28.3713 155.87L26.4901 152.122L32.9211 145.166L35.8668 147.31Z" fill="black"/>
<path d="M28.3712 155.87C28.3712 155.87 23.0194 150.241 25.9651 145.166C25.9651 145.166 28.6483 140.616 33.4605 141.156C33.4605 141.156 41.7581 132.056 51.9368 137.671C51.9368 137.671 54.0805 149.716 33.7376 148.651C33.7231 148.637 27.0296 148.637 28.3712 155.87Z" fill="#5CC2AD"/>
<path d="M28.1525 155.914C27.0297 150.868 28.4879 147.062 29.917 144.772C31.4628 142.293 33.2419 141.01 33.3294 140.966L33.5773 141.331C33.5627 141.346 31.7836 142.614 30.2816 145.035C28.9108 147.252 27.4963 150.941 28.5754 155.826L28.1525 155.914Z" fill="#17311D"/>
<path d="M61.9697 140.485C61.9697 140.485 63.8509 134.331 69.7277 134.856C69.7277 134.856 72.9651 130.117 79.1044 134.317C81.248 135.79 83.1146 137.525 82.3126 144.218C82.3126 144.218 80.3002 140.879 75.0796 140.733C71.536 140.66 61.9697 140.485 61.9697 140.485Z" fill="#5CC2AD"/>
<path d="M82.1084 144.291C80.4022 139.187 77.1065 136.971 74.6275 136.008C71.9442 134.973 69.6548 135.133 69.6256 135.133L69.5964 134.696C69.6985 134.681 72.0172 134.521 74.7879 135.585C77.3399 136.577 80.7668 138.866 82.5167 144.131L82.1084 144.291Z" fill="#17311D"/>
<path d="M56.7492 153.201H47.9121C46.0309 153.201 44.3685 154.149 43.2602 155.009C42.3123 155.739 41.7582 156.409 41.7582 156.409C41.5832 154.237 42.5019 152.195 43.7706 150.766C44.3831 150.081 45.0831 149.541 45.7685 149.191C54.0952 145.02 56.7492 153.201 56.7492 153.201Z" fill="#197A83"/>
<path d="M53.2638 153.216C52.243 147.922 48.1161 148.418 48.087 148.433L48.0432 148.141C48.087 148.141 52.4764 147.601 53.5555 153.157L53.2638 153.216Z" fill="#020403"/>
<path d="M53.6191 152.402L52.8998 152.522L55.3392 167.195L56.0585 167.076L53.6191 152.402Z" fill="#22452A"/>
<path d="M57.9158 167.434L57.1866 167.332C58.3387 159.297 58.1054 154.747 57.7262 151.364C57.07 145.502 55.2034 142.191 53.7451 140.427C52.1848 138.531 50.7557 138.021 50.7411 138.006L50.989 137.321C51.0473 137.35 52.5785 137.889 54.2701 139.916C55.8013 141.754 57.77 145.21 58.4553 151.276C58.8345 154.718 59.0678 159.311 57.9158 167.434Z" fill="#5CC2AD"/>
<path d="M57.8574 151.947C56.8075 138.4 54.9409 127.521 54.9117 127.419L55.6263 127.288C55.6409 127.39 57.522 138.298 58.572 151.889L57.8574 151.947Z" fill="#5CC2AD"/>
<path d="M61.2552 168.134L60.5406 167.988C65.0321 146.858 65.0905 138.954 65.0905 138.881H65.8196C65.805 138.954 65.7613 146.916 61.2552 168.134Z" fill="#5CC2AD"/>
<path d="M55.5971 130.613C55.5826 130.525 54.1972 121.863 48.2183 119.005C46.585 118.217 41.8311 115.811 41.7874 115.797L41.9915 115.403C42.0352 115.432 46.7892 117.838 48.4079 118.611C54.5909 121.571 56.0054 130.467 56.02 130.554L55.5971 130.613Z" fill="#17311D"/>
<path d="M43.2602 155.009C42.3123 155.739 41.7582 156.409 41.7582 156.409C41.5832 154.237 42.5019 152.195 43.7706 150.766C43.5081 151.787 43.1435 153.493 43.2602 155.009Z" fill="#020403"/>
<path d="M45.3746 165.917H71.0694L67.3216 192.414H49.1224L45.3746 165.917Z" fill="#197A83"/>
<path d="M87.8684 127.915L70.1505 192.399H66.7527L84.4852 127.915H87.8684Z" fill="#38B0A9"/>
<path d="M84.4852 127.915L102.203 192.399H105.601L87.8684 127.915H84.4852Z" fill="#38B0A9"/>
<path d="M192.062 127.915H160.476V192.399H192.062V127.915Z" fill="#38B0A9"/>
<path d="M98.995 127.915L116.728 192.399H120.111L102.393 127.915H98.995Z" fill="#38B0A9"/>
<path d="M100.322 127.915L118.04 192.399H121.438L103.705 127.915H100.322Z" fill="#D0F3F1"/>
<path d="M102.393 127.915L84.6603 192.399H81.2771L98.9951 127.915H102.393Z" fill="#38B0A9"/>
<path d="M103.705 127.915L85.9872 192.399H82.5895L100.322 127.915H103.705Z" fill="#D0F3F1"/>
<path d="M92.2141 126.223V129.606H191.391V192.399H219.871V126.223H92.2141Z" fill="#D0F3F1"/>
<path d="M96.5452 126.223H74.4816V129.621H96.5452V126.223Z" fill="#38B0A9"/>
<path d="M193.476 131.123V190.518H218.369V131.123H193.476ZM217.611 189.76H194.235V178.736H201.774V180.719H210.8V178.736H217.625V189.76H217.611ZM217.611 177.977H194.235V166.282H201.774V168.265H210.8V166.282H217.625V177.977H217.611ZM217.611 165.538H194.235V154.849H201.774V156.759H210.8V154.849H217.625V165.538H217.611ZM217.611 154.091H194.235V143.475H201.774V145.458H210.8V143.475H217.625V154.091H217.611ZM217.611 142.716H194.235V131.867H201.774V133.748H210.8V131.867H217.625V142.716H217.611Z" fill="#38B0A9"/>
<path d="M128.948 114.47L127.198 126.282H135.802L137.552 114.47H128.948Z" fill="#373133"/>
<path d="M109.334 88.352L111.099 114.338C111.172 115.447 112.09 116.307 113.199 116.307H153.841C155.066 116.307 156.028 115.272 155.94 114.061L154.176 88.075C154.103 86.9667 153.184 86.1063 152.076 86.1063H111.434C110.224 86.1063 109.261 87.1417 109.334 88.352Z" fill="#373133"/>
<path d="M130.552 114.47L128.802 126.282H137.406L139.156 114.47H130.552Z" fill="#6D68E0"/>
<path d="M155.605 116.322H114.963C113.855 116.322 112.936 115.461 112.863 114.353L112.644 111.189L111.084 88.3666C110.997 87.1417 111.974 86.1063 113.184 86.1063H153.826C154.934 86.1063 155.853 86.9667 155.926 88.075L157.501 111.189L157.69 114.061C157.792 115.286 156.83 116.322 155.605 116.322Z" fill="#6D68E0"/>
<path d="M114.832 111.028L113.432 90.2332C113.359 89.1833 114.234 88.2937 115.328 88.2937H152.061C153.068 88.2937 153.899 89.0374 153.957 89.9853L155.372 111.028H114.832Z" fill="white"/>
<path d="M125.521 124.532H115.823V126.282H125.521V124.532Z" fill="#373133"/>
<path d="M150.895 124.532H125.01V126.282H150.895V124.532Z" fill="#6D68E0"/>
<path d="M123.246 113.536H117.209V117.474C117.209 117.474 117.209 119.019 118.755 119.165H124.938C124.938 119.165 123.596 119.092 123.319 117.547L123.246 113.536Z" fill="#FC2B45"/>
<path d="M130.683 111.932H124.646V115.87C124.646 115.87 124.646 117.415 126.192 117.561H132.375C132.375 117.561 131.033 117.488 130.756 115.942L130.683 111.932Z" fill="#FD9E28"/>
<path d="M122.559 88.258L121.541 88.3233L122.999 111.07L124.017 111.005L122.559 88.258Z" fill="#D0F3F1"/>
<path d="M143.705 88.2582L142.687 88.3235L144.145 111.071L145.163 111.005L143.705 88.2582Z" fill="#D0F3F1"/>
<path d="M124.646 92.5227L125.083 98.9391H141.416L140.979 92.5227H124.646Z" fill="#D0F3F1"/>
<path d="M145.208 92.756L145.397 95.4392H152.207L152.018 92.756H145.208Z" fill="#D0F3F1"/>
<path d="M145.645 98.4433L145.835 101.126H152.645L152.455 98.4433H145.645Z" fill="#D0F3F1"/>
<path d="M146.083 104.131L146.272 106.814H153.082L152.893 104.131H146.083Z" fill="#D0F3F1"/>
<path d="M125.229 101.856L125.667 108.272H141.999L141.562 101.856H125.229Z" fill="#D0F3F1"/>
<path d="M130.625 90.1166H124.646V90.8457H130.625V90.1166Z" fill="#D0F3F1"/>
<path d="M120.563 90.1895H114.584V90.9186H120.563V90.1895Z" fill="#D0F3F1"/>
<path d="M120.709 92.231H114.73V92.9602H120.709V92.231Z" fill="#D0F3F1"/>
<path d="M120.855 94.2726H114.876V95.0018H120.855V94.2726Z" fill="#D0F3F1"/>
<path d="M121 96.3142H115.021V97.0433H121V96.3142Z" fill="#D0F3F1"/>
<path d="M121.146 98.3558H115.167V99.0849H121.146V98.3558Z" fill="#D0F3F1"/>
<path d="M148.853 90.3353H145.062V91.0644H148.853V90.3353Z" fill="#D0F3F1"/>
<path d="M179.754 97.2621L179.768 93.0477C179.768 93.0477 172.856 94.8268 176.137 81.7753C176.137 81.7753 180.556 77.138 186.054 81.7753L186.637 91.254L187.424 96.8392L179.754 97.2621Z" fill="#FCBB9D"/>
<path d="M189.626 81.8336C190.195 76.5255 187.264 77.1526 187.264 77.1526C184.318 72.9382 182.831 75.4464 182.831 75.4464C180.352 73.2298 179.579 75.3735 179.579 75.3735C177.144 74.3673 176.706 76.5255 176.706 76.5255C174.417 76.088 174.548 78.2463 174.548 78.2463C173.688 78.3921 173.512 79.515 173.542 79.967C173.746 82.8544 175.802 83.0731 176.939 82.9711L177.202 86.4855C177.231 86.8209 177.552 87.0396 177.873 86.9376C178.062 86.8792 178.194 86.7188 178.237 86.5292C178.252 86.4855 178.252 86.4417 178.252 86.4126C178.5 85.1585 180.527 84.196 180.818 86.4126C180.818 86.4126 181.037 89.2708 179.535 89.3291C179.535 89.3291 181.154 92.7415 185.004 92.0269C185.645 91.9103 189.86 90.8457 189.524 83.5106C189.656 82.5336 189.626 81.8336 189.626 81.8336Z" fill="#373133"/>
<path d="M173.498 115.272L167.869 120.784C167.359 121.28 166.717 121.615 166.017 121.746L147.759 125.261L142.947 125.553C142.947 125.553 143.822 124.386 144.989 124.094H141.781L138.587 125.48C138.208 125.64 137.77 125.494 137.581 125.13C137.406 124.794 137.493 124.371 137.8 124.123L141.197 121.542C141.751 121.119 142.451 120.915 143.151 120.988L147.672 121.411L149.334 122.009L164.019 115.272L170.946 108.345L173.498 115.272Z" fill="#CC8772"/>
<path d="M141.27 179.494L138.339 186.012L137.1 188.768H131.616L133.016 184.7L134.781 179.581L141.27 179.494Z" fill="#FCBB9D"/>
<path d="M137.945 186.902C137.464 187.398 135.51 189.046 132.287 186.8C132.258 186.785 132.229 186.771 132.185 186.8L123.275 191.568C122.852 191.787 123.013 192.429 123.494 192.429H138.033C138.704 192.429 139.199 191.802 139.054 191.16L138.106 186.975C138.091 186.873 138.004 186.844 137.945 186.902Z" fill="#4F216C"/>
<path d="M162.853 179.494L160.826 186.056L159.994 188.768H154.511L155.255 184.992L156.363 179.436L162.853 179.494Z" fill="#FCBB9D"/>
<path d="M162.853 179.494L160.826 186.056L155.255 184.992L156.363 179.436L162.853 179.494Z" fill="#E6A68A"/>
<path d="M160.549 186.902C160.067 187.398 158.113 189.046 154.89 186.8C154.861 186.785 154.832 186.771 154.788 186.8L145.878 191.568C145.455 191.787 145.616 192.429 146.097 192.429H160.636C161.307 192.429 161.803 191.802 161.657 191.16L160.709 186.975C160.694 186.873 160.607 186.844 160.549 186.902Z" fill="#4F216C"/>
<path d="M161.03 142.031L154.395 183.956L164.019 184.539L175.029 142.031H161.03Z" fill="#311547"/>
<path d="M141.27 179.494L138.339 186.012L133.016 184.7L134.781 179.581L141.27 179.494Z" fill="#E6A68A"/>
<path d="M169.852 116.293L166.527 119.092L164.894 120.463C164.5 120.799 164.034 121.017 163.538 121.134L141.124 126.209C139.345 126.515 137.537 125.771 136.239 125.013C135.802 124.94 135.379 124.882 134.97 124.823C134.285 126.267 132.375 126.807 132.375 126.807L133.191 123.846C133.308 123.438 133.571 123.103 133.935 122.898L136.808 121.265C137.522 120.857 138.383 120.842 139.112 121.192L140.162 121.703L160.009 114.878L162.998 111.582L164.632 109.774L169.852 116.293Z" fill="#FCBB9D"/>
<path d="M169.852 116.293L166.527 119.092L162.998 111.611L164.632 109.803L169.852 116.293Z" fill="#E6A68A"/>
<path d="M173.542 130.948L171.938 132.99L156.553 134.842C152.645 135.308 149.334 137.933 147.978 141.623L132.666 183.081L143.02 184.685L159.236 149.731C159.236 149.731 198.653 156.132 194.278 135.6L173.542 130.948Z" fill="#4F216C"/>
<path d="M176.852 96.2267C176.75 96.2559 173.367 97.685 171.471 100.193C168.234 104.481 163.494 110.707 163.494 110.707L168.715 117.751L171.092 115.388L170.8 127.492L169.123 133.063C169.123 133.063 171.865 135.162 174.227 136.271C183.56 140.646 196.101 138.896 196.101 138.896L194.585 109.687C194.585 109.687 194.978 99.3766 190.851 96.1684C190.851 96.1684 185.879 93.6164 176.852 96.2267Z" fill="#F1884F"/>
<path d="M173.377 113.522L168.563 117.608L168.846 117.942L173.66 113.856L173.377 113.522Z" fill="#373133"/>
<path d="M180.425 164.43H177.902V181.827H180.425V164.43Z" fill="#D0F3F1"/>
<path d="M175.846 155.476V162.767C175.846 164.605 177.333 166.092 179.171 166.092C181.008 166.092 182.496 164.605 182.496 162.767V155.476H175.846Z" fill="#D0F3F1"/>
<path d="M168.744 153.128V153.712C168.744 155.068 169.838 156.162 171.194 156.162H190.487C191.843 156.162 192.937 155.068 192.937 153.712V153.128H168.744Z" fill="#D0F3F1"/>
<path d="M177.844 149.716V154.105H196.159C197.37 154.105 198.347 153.128 198.347 151.918C198.347 150.708 197.37 149.731 196.159 149.731H177.844V149.716Z" fill="#D34848"/>
<path d="M162.24 151.903C162.24 153.114 163.217 154.091 164.428 154.091H177.464C178.675 154.091 179.652 153.114 179.652 151.903C179.652 150.693 178.675 149.716 177.464 149.716H164.428C163.217 149.716 162.24 150.693 162.24 151.903Z" fill="#EE504F"/>
<path d="M162.255 186.114L174.402 182.848V182.804C174.402 180.194 176.517 178.079 179.127 178.079C181.737 178.079 183.852 180.194 183.852 182.804V183.037L195.285 186.1C195.999 186.289 196.437 187.004 196.276 187.733C196.116 188.462 195.401 188.929 194.672 188.783L182.846 186.508H179.039H178.529H174.708L162.882 188.783C162.153 188.929 161.438 188.462 161.278 187.733C161.117 187.019 161.54 186.304 162.255 186.114Z" fill="#D0F3F1"/>
<path d="M192.485 192.414C193.701 192.414 194.687 191.428 194.687 190.212C194.687 188.996 193.701 188.01 192.485 188.01C191.269 188.01 190.283 188.996 190.283 190.212C190.283 191.428 191.269 192.414 192.485 192.414Z" fill="#373133"/>
<path d="M192.485 191.437C193.161 191.437 193.71 190.889 193.71 190.212C193.71 189.536 193.161 188.987 192.485 188.987C191.808 188.987 191.26 189.536 191.26 190.212C191.26 190.889 191.808 191.437 192.485 191.437Z" fill="#38B0A9"/>
<path d="M165.113 192.414C166.329 192.414 167.315 191.428 167.315 190.212C167.315 188.996 166.329 188.01 165.113 188.01C163.897 188.01 162.911 188.996 162.911 190.212C162.911 191.428 163.897 192.414 165.113 192.414Z" fill="#373133"/>
<path d="M165.113 191.437C165.79 191.437 166.338 190.889 166.338 190.212C166.338 189.536 165.79 188.987 165.113 188.987C164.436 188.987 163.888 189.536 163.888 190.212C163.888 190.889 164.436 191.437 165.113 191.437Z" fill="#38B0A9"/>
<path d="M70.588 50.16H107.293C108.036 50.16 108.649 50.7725 108.649 51.5162V78.4796C108.649 79.2233 108.036 79.8358 107.293 79.8358H70.588C69.8443 79.8358 69.2318 79.2233 69.2318 78.4796V51.5162C69.2318 50.7725 69.8443 50.16 70.588 50.16Z" fill="#D0F3F1"/>
<path d="M94.6787 56.9118H71.1714V69.8029H94.6787V56.9118Z" fill="white"/>
<path d="M99.8992 52.5807H75.3566V54.1411H99.8992V52.5807Z" fill="#38B0A9"/>
<path d="M103.268 54.1703C103.711 54.1703 104.07 53.8112 104.07 53.3682C104.07 52.9253 103.711 52.5662 103.268 52.5662C102.825 52.5662 102.466 52.9253 102.466 53.3682C102.466 53.8112 102.825 54.1703 103.268 54.1703Z" fill="#38B0A9"/>
<path d="M105.382 54.1703C105.825 54.1703 106.184 53.8112 106.184 53.3682C106.184 52.9253 105.825 52.5662 105.382 52.5662C104.939 52.5662 104.58 52.9253 104.58 53.3682C104.58 53.8112 104.939 54.1703 105.382 54.1703Z" fill="#38B0A9"/>
<path d="M101.46 56.8826H96.0786V61.1554H101.46V56.8826Z" fill="#38B0A9"/>
<path d="M105.703 56.8826H102.466V57.6409H105.703V56.8826Z" fill="#38B0A9"/>
<path d="M107.293 58.6034H102.466V59.3617H107.293V58.6034Z" fill="#38B0A9"/>
<path d="M105.703 62.7157H102.466V63.474H105.703V62.7157Z" fill="#38B0A9"/>
<path d="M107.293 64.4365H102.466V65.1948H107.293V64.4365Z" fill="#38B0A9"/>
<path d="M105.703 68.4467H102.466V69.205H105.703V68.4467Z" fill="#38B0A9"/>
<path d="M107.293 70.1675H102.466V70.9258H107.293V70.1675Z" fill="#38B0A9"/>
<path d="M105.703 74.1777H102.466V74.936H105.703V74.1777Z" fill="#38B0A9"/>
<path d="M107.293 75.8985H102.466V76.6568H107.293V75.8985Z" fill="#38B0A9"/>
<path d="M101.46 62.672H96.0786V66.9447H101.46V62.672Z" fill="#38B0A9"/>
<path d="M101.46 68.4759H96.0786V72.7486H101.46V68.4759Z" fill="#38B0A9"/>
<path d="M101.46 74.2215H96.0786V78.4942H101.46V74.2215Z" fill="#38B0A9"/>
<path d="M87.2414 71.0278H71.0109V72.3986H87.2414V71.0278Z" fill="#38B0A9"/>
<path d="M72.7608 77.1234C73.7272 77.1234 74.5107 76.3399 74.5107 75.3735C74.5107 74.407 73.7272 73.6236 72.7608 73.6236C71.7943 73.6236 71.0109 74.407 71.0109 75.3735C71.0109 76.3399 71.7943 77.1234 72.7608 77.1234Z" fill="#38B0A9"/>
<path d="M81.8312 73.6381H75.9982V74.9068H81.8312V73.6381Z" fill="#38B0A9"/>
<path d="M80.9271 60.6741V66.026L84.9374 63.3428L80.9271 60.6741Z" fill="#E8315D"/>
<path d="M74.0148 52.5807H71.1566V54.1848H74.0148V52.5807Z" fill="#38B0A9"/>
<path d="M130.727 65.8364H118.594C118.317 65.8364 118.084 66.0697 118.084 66.3468V75.5776C118.084 75.8547 118.317 76.088 118.594 76.088H125.827L129.269 79.1066V76.088H130.712C130.99 76.088 131.223 75.8547 131.223 75.5776V66.3468C131.237 66.0697 131.004 65.8364 130.727 65.8364Z" fill="#D0F3F1"/>
<path d="M123.304 68.4029V73.4194L127.227 70.9112L123.304 68.4029Z" fill="#E8315D"/>
<path d="M162.867 59.1138C162.867 58.6763 162.503 58.3117 162.065 58.3117H145.251C144.814 58.3117 144.449 58.6763 144.449 59.1138V72.3549C144.449 72.7923 144.814 73.1569 145.251 73.1569H146.943V77.0942L150.384 73.1569H162.065C162.503 73.1569 162.867 72.7923 162.867 72.3549V59.1138Z" fill="#D0F3F1"/>
<path d="M160.213 62.4386H147.38V63.6053H160.213V62.4386Z" fill="#38B0A9"/>
<path d="M160.228 64.9323H147.395V66.0989H160.228V64.9323Z" fill="#38B0A9"/>
<path d="M160.228 67.4405H147.395V68.6071H160.228V67.4405Z" fill="#38B0A9"/>
<path d="M49.691 87.6083V92.4352C49.691 93.0331 50.1723 93.4997 50.7556 93.4997H88.3935C88.9914 93.4997 89.458 93.0185 89.458 92.4352V87.6083C89.458 87.0104 88.9768 86.5438 88.3935 86.5438H50.7556C50.1723 86.5438 49.691 87.025 49.691 87.6083Z" fill="#D0F3F1"/>
<path d="M49.691 96.5329V101.36C49.691 101.958 50.1723 102.424 50.7556 102.424H88.3935C88.9914 102.424 89.458 101.943 89.458 101.36V96.5329C89.458 95.935 88.9768 95.4684 88.3935 95.4684H50.7556C50.1723 95.4684 49.691 95.9496 49.691 96.5329Z" fill="#D0F3F1"/>
<path d="M76.5962 89.6499H51.9514V90.3936H76.5962V89.6499Z" fill="#38B0A9"/>
<path d="M53.6137 98.9537L54.6054 99.5078L54.27 100.106L53.2492 99.5078L53.2638 100.631H52.5929L52.6075 99.5078L51.6013 100.091L51.2513 99.4932L52.2576 98.9391L51.2513 98.3849L51.6013 97.787L52.6075 98.3849L52.5929 97.2621H53.2638L53.2492 98.3849L54.27 97.787L54.6054 98.3849L53.6137 98.9537Z" fill="#38B0A9"/>
<path d="M59.0969 98.9537L60.0885 99.5078L59.7531 100.106L58.7323 99.5078L58.7469 100.631H58.0761L58.0907 99.5078L57.0845 100.091L56.7345 99.4932L57.7407 98.9391L56.7345 98.3849L57.0845 97.787L58.0907 98.3849L58.0761 97.2621H58.7469L58.7323 98.3849L59.7531 97.787L60.0885 98.3849L59.0969 98.9537Z" fill="#38B0A9"/>
<path d="M64.58 98.9537L65.5715 99.5078L65.2362 100.106L64.2154 99.5078L64.2299 100.631H63.5592L63.5737 99.5078L62.5675 100.091L62.2175 99.4932L63.2238 98.9391L62.2175 98.3849L62.5675 97.787L63.5737 98.3849L63.5592 97.2621H64.2299L64.2154 98.3849L65.2362 97.787L65.5715 98.3849L64.58 98.9537Z" fill="#38B0A9"/>
<path d="M70.0631 98.9537L71.0547 99.5078L70.7193 100.106L69.6985 99.5078L69.7131 100.631H69.0423L69.0569 99.5078L68.0507 100.091L67.7007 99.4932L68.7069 98.9391L67.7007 98.3849L68.0507 97.787L69.0569 98.3849L69.0423 97.2621H69.7131L69.6985 98.3849L70.7193 97.787L71.0547 98.3849L70.0631 98.9537Z" fill="#38B0A9"/>
<path d="M75.6045 98.9537L76.5961 99.5078L76.2607 100.106L75.2399 99.5078L75.2545 100.631H74.5837L74.5983 99.5078L73.592 100.091L73.2421 99.4932L74.2483 98.9391L73.2421 98.3849L73.592 97.787L74.5983 98.3849L74.5837 97.2621H75.2545L75.2399 98.3849L76.2607 97.787L76.5961 98.3849L75.6045 98.9537Z" fill="#38B0A9"/>
<path d="M229.787 192.341H32.3376V193.07H229.787V192.341Z" fill="#373133"/>
<defs>
<filter id="filter0_d_320_492" x="3.11646" y="59.1581" width="230.727" height="200.645" filterUnits="userSpaceOnUse" color-interpolation-filters="sRGB">
<feFlood flood-opacity="0" result="BackgroundImageFix"/>
<feColorMatrix in="SourceAlpha" type="matrix" values="0 0 0 0 0 0 0 0 0 0 0 0 0 0 0 0 0 0 127 0" result="hardAlpha"/>
<feOffset dx="-5" dy="5"/>
<feGaussianBlur stdDeviation="5"/>
<feColorMatrix type="matrix" values="0 0 0 0 0.937255 0 0 0 0 0.345098 0 0 0 0 0.345098 0 0 0 0.2 0"/>
<feBlend mode="normal" in2="BackgroundImageFix" result="effect1_dropShadow_320_492"/>
<feBlend mode="normal" in="SourceGraphic" in2="effect1_dropShadow_320_492" result="shape"/>
</filter>
</defs>
</svg>
